name ./resultDataOpenSim/trcMotMarkerGrf/sub09/grf-14-04.mot
datacolumns 19
datarows 22
range 1.43600000 1.52000000
endheader

                time	     ground_force_vx	     ground_force_vy	     ground_force_vz	     ground_force_px	     ground_force_py	     ground_force_pz	   l_ground_force_vx	   l_ground_force_vy	   l_ground_force_vz	   l_ground_force_px	   l_ground_force_py	   l_ground_force_pz	     ground_torque_x	     ground_torque_y	     ground_torque_z	   l_ground_torque_x	   l_ground_torque_y	   l_ground_torque_z	
          1.43600000	        -43.89178484	        418.15645396	        -18.97280638	          1.05299259	          0.00000000	          0.05930137	          0.00000000	          0.00000000	          0.00000000	          0.00000000	          0.00000000	          0.00000000	          0.00000000	          1.29353489	          0.00000000	          0.00000000	          0.00000000	          0.00000000	
          1.44000000	        -42.15421574	        415.68971041	        -21.41152785	          1.05490852	          0.00000000	          0.05924874	          0.00000000	          0.00000000	          0.00000000	          0.00000000	          0.00000000	          0.00000000	          0.00000000	          0.90949563	          0.00000000	          0.00000000	          0.00000000	          0.00000000	
          1.44400000	        -39.78639096	        413.87941323	        -22.88153849	          1.05647709	          0.00000000	          0.05915476	          0.00000000	          0.00000000	          0.00000000	          0.00000000	          0.00000000	          0.00000000	          0.00000000	          0.59200073	          0.00000000	          0.00000000	          0.00000000	          0.00000000	
          1.44800000	        -37.25228489	        412.61516565	        -23.07664265	          1.05779618	          0.00000000	          0.05899468	          0.00000000	          0.00000000	          0.00000000	          0.00000000	          0.00000000	          0.00000000	          0.00000000	          0.38711640	          0.00000000	          0.00000000	          0.00000000	          0.00000000	
          1.45200000	        -35.07328875	        411.80778021	        -21.92886261	          1.05895943	          0.00000000	          0.05874641	          0.00000000	          0.00000000	          0.00000000	          0.00000000	          0.00000000	          0.00000000	          0.00000000	          0.32224705	          0.00000000	          0.00000000	          0.00000000	          0.00000000	
          1.45600000	        -33.67836609	        411.38694583	        -19.61036973	          1.06006128	          0.00000000	          0.05839923	          0.00000000	          0.00000000	          0.00000000	          0.00000000	          0.00000000	          0.00000000	          0.00000000	          0.40148672	          0.00000000	          0.00000000	          0.00000000	          0.00000000	
          1.46000000	        -33.27768171	        411.28672251	        -16.49241907	          1.06115644	          0.00000000	          0.05796205	          0.00000000	          0.00000000	          0.00000000	          0.00000000	          0.00000000	          0.00000000	          0.00000000	          0.60497153	          0.00000000	          0.00000000	          0.00000000	          0.00000000	
          1.46400000	        -33.81204648	        411.43138882	        -13.06693566	          1.06225035	          0.00000000	          0.05746440	          0.00000000	          0.00000000	          0.00000000	          0.00000000	          0.00000000	          0.00000000	          0.00000000	          0.89252575	          0.00000000	          0.00000000	          0.00000000	          0.00000000	
          1.46800000	        -34.98511470	        411.73405007	         -9.84898517	          1.06333154	          0.00000000	          0.05694709	          0.00000000	          0.00000000	          0.00000000	          0.00000000	          0.00000000	          0.00000000	          0.00000000	          1.21118383	          0.00000000	          0.00000000	          0.00000000	          0.00000000	
          1.47200000	        -36.33855679	        412.11750125	         -7.28305512	          1.06435817	          0.00000000	          0.05644713	          0.00000000	          0.00000000	          0.00000000	          0.00000000	          0.00000000	          0.00000000	          0.00000000	          1.50537021	          0.00000000	          0.00000000	          0.00000000	          0.00000000	
          1.47600000	        -37.34540850	        412.53490520	         -5.66857455	          1.06526463	          0.00000000	          0.05598983	          0.00000000	          0.00000000	          0.00000000	          0.00000000	          0.00000000	          0.00000000	          0.00000000	          1.72783753	          0.00000000	          0.00000000	          0.00000000	          0.00000000	
          1.48000000	        -37.52792490	        412.96555656	         -5.11514133	          1.06598069	          0.00000000	          0.05559141	          0.00000000	          0.00000000	          0.00000000	          0.00000000	          0.00000000	          0.00000000	          0.00000000	          1.84909031	          0.00000000	          0.00000000	          0.00000000	          0.00000000	
          1.48400000	        -36.58797008	        413.40595409	         -5.53198359	          1.06646538	          0.00000000	          0.05525840	          0.00000000	          0.00000000	          0.00000000	          0.00000000	          0.00000000	          0.00000000	          0.00000000	          1.86313320	          0.00000000	          0.00000000	          0.00000000	          0.00000000	
          1.48800000	        -34.49913706	        413.88774489	         -6.65010333	          1.06674349	          0.00000000	          0.05498377	          0.00000000	          0.00000000	          0.00000000	          0.00000000	          0.00000000	          0.00000000	          0.00000000	          1.78809147	          0.00000000	          0.00000000	          0.00000000	          0.00000000	
          1.49200000	        -31.52242070	        414.49603257	         -8.07856689	          1.06685125	          0.00000000	          0.05474312	          0.00000000	          0.00000000	          0.00000000	          0.00000000	          0.00000000	          0.00000000	          0.00000000	          1.66147138	          0.00000000	          0.00000000	          0.00000000	          0.00000000	
          1.49600000	        -28.14763555	        415.34206833	         -9.38832385	          1.06683422	          0.00000000	          0.05450358	          0.00000000	          0.00000000	          0.00000000	          0.00000000	          0.00000000	          0.00000000	          0.00000000	          1.53120611	          0.00000000	          0.00000000	          0.00000000	          0.00000000	
          1.50000000	        -24.96923234	        416.51307856	        -10.19831046	          1.06678255	          0.00000000	          0.05425024	          0.00000000	          0.00000000	          0.00000000	          0.00000000	          0.00000000	          0.00000000	          0.00000000	          1.44467289	          0.00000000	          0.00000000	          0.00000000	          0.00000000	
          1.50400000	        -22.51705430	        418.05620734	        -10.24250034	          1.06681391	          0.00000000	          0.05398387	          0.00000000	          0.00000000	          0.00000000	          0.00000000	          0.00000000	          0.00000000	          0.00000000	          1.43829789	          0.00000000	          0.00000000	          0.00000000	          0.00000000	
          1.50800000	        -21.10017561	        420.00559714	         -9.41489043	          1.06700015	          0.00000000	          0.05371379	          0.00000000	          0.00000000	          0.00000000	          0.00000000	          0.00000000	          0.00000000	          0.00000000	          1.53015776	          0.00000000	          0.00000000	          0.00000000	          0.00000000	
          1.51200000	        -20.72773417	        422.40999960	         -7.78663445	          1.06733479	          0.00000000	          0.05344448	          0.00000000	          0.00000000	          0.00000000	          0.00000000	          0.00000000	          0.00000000	          0.00000000	          1.71709328	          0.00000000	          0.00000000	          0.00000000	          0.00000000	
          1.51600000	        -21.12511228	        425.32464762	         -5.58778863	          1.06776152	          0.00000000	          0.05317311	          0.00000000	          0.00000000	          0.00000000	          0.00000000	          0.00000000	          0.00000000	          0.00000000	          1.97646917	          0.00000000	          0.00000000	          0.00000000	          0.00000000	
          1.52000000	        -21.81619081	        428.77678097	         -3.16184545	          1.06818193	          0.00000000	          0.05291057	          0.00000000	          0.00000000	          0.00000000	          0.00000000	          0.00000000	          0.00000000	          0.00000000	          2.27153135	          0.00000000	          0.00000000	          0.00000000	          0.00000000	
